# xmcd
#
# Track frame offsets:
#	150
#	14385
#	27836
#	39107
#	54520
#	64679
#	74085
#	85338
#	97023
#	109753
#	122416
#	132267
#	142827
#	155514
#	167734
#
# Disc length: 2417 seconds
#
# Revision: 3
# Processed by: cddbd v1.5.2PL0 Copyright (c) Steve Scherf et al.
# Submitted via: audiograbber 1.83.01
#
DISCID=c4096f0f
DTITLE=Various Artist - Mojo Presents: The Roots of the Rolling Stones
DYEAR=2012
DGENRE=Blues
TTITLE0=Elmore James and the Broom Dusters - Dust My Blues
TTITLE1=Eddie Taylor - Bad Boy [Original]
TTITLE2=Jimmy Reed - Hush-Hush
TTITLE3=Bo Diddley - Cops And Robbers
TTITLE4=Dale Hawkins - Susie Q
TTITLE5=Gene Allison - You Can Make It If You Try
TTITLE6=Muddy Waters - I Wanna Be Loved
TTITLE7=The Coasters - Poison Ivy
TTITLE8=Arthur Alexander - You Better Move on
TTITLE9=Bo Diddley - Pretty Thing
TTITLE10=Chuck Berry - Memphis, Tennessee
TTITLE11=The Crickets With Buddy Holly - Not Fade Away
TTITLE12=Muddy Waters - I Just Wanna Make Love To You
TTITLE13=Jimmy Reed - Honest I Do
TTITLE14=Slim Harpo - I'm A King Bee
EXTD=
EXTT0=
EXTT1=
EXTT2=
EXTT3=
EXTT4=
EXTT5=
EXTT6=
EXTT7=
EXTT8=
EXTT9=
EXTT10=
EXTT11=
EXTT12=
EXTT13=
EXTT14=
PLAYORDER=
